<?xml version="1.0" standalone="no"?>
<!DOCTYPE svg PUBLIC "-//W3C//DTD SVG 20010904//EN"
 "http://www.w3.org/TR/2001/REC-SVG-20010904/DTD/svg10.dtd">
<svg version="1.0" xmlns="http://www.w3.org/2000/svg"
 width="512.000000pt" height="512.000000pt" viewBox="0 0 512.000000 512.000000"
 preserveAspectRatio="xMidYMid meet">

<g transform="translate(0.000000,512.000000) scale(0.100000,-0.100000)"
fill="#000000" stroke="none">
<path d="M2606 5064 c182 -220 1357 -1669 1360 -1678 3 -7 -169 -313 -382
-681 -213 -369 -528 -915 -701 -1215 -173 -300 -318 -549 -322 -553 -4 -4
-500 71 -1101 168 -601 96 -1095 174 -1096 172 -2 -2 490 -288 1093 -637 990
-571 1100 -632 1123 -623 14 6 512 292 1108 635 l1082 626 3 1280 2 1279
-1054 609 c-580 335 -1077 622 -1105 638 l-50 29 40 -49z"/>
<path d="M351 2568 c0 -700 4 -1264 8 -1253 5 11 82 211 171 445 89 234 220
576 290 760 281 735 320 840 320 852 0 7 -94 67 -208 132 -313 181 -513 296
-549 318 l-33 20 1 -1274z"/>
</g>
</svg>
