<?xml version="1.0" standalone="no"?>
<!DOCTYPE svg PUBLIC "-//W3C//DTD SVG 20010904//EN"
 "http://www.w3.org/TR/2001/REC-SVG-20010904/DTD/svg10.dtd">
<svg version="1.0" xmlns="http://www.w3.org/2000/svg"
 width="128.000000pt" height="128.000000pt" viewBox="0 0 128.000000 128.000000"
 preserveAspectRatio="xMidYMid meet">

<g transform="translate(0.000000,128.000000) scale(0.100000,-0.100000)"
fill="#000000" stroke="none">
<path d="M752 1214 c-34 -14 -62 -62 -62 -106 0 -41 -20 -95 -45 -122 l-24
-26 33 0 c30 0 93 -16 139 -35 25 -10 23 38 -5 147 -19 74 -21 93 -10 120 6
17 11 33 9 34 -1 1 -17 -4 -35 -12z"/>
<path d="M321 1127 c-15 -45 -9 -67 41 -138 29 -40 40 -67 41 -96 l2 -40 34
30 c19 16 57 40 84 51 l49 22 -40 35 c-22 18 -68 50 -102 69 -42 23 -67 45
-80 69 l-17 35 -12 -37z"/>
<path d="M996 935 c-53 -34 -78 -45 -109 -45 l-39 0 32 -37 c18 -20 43 -59 55
-86 l21 -49 31 35 c17 20 46 63 64 97 33 63 69 100 98 100 27 1 -31 29 -59 30
-14 0 -57 -20 -94 -45z"/>
<path d="M533 885 c-29 -13 -53 -27 -53 -30 0 -3 9 -24 21 -47 l21 -41 -24 7
c-72 20 -76 20 -93 -15 -10 -18 -20 -61 -23 -96 l-5 -63 59 0 59 -1 -44 -38
-44 -39 23 -32 c27 -37 96 -90 119 -90 9 0 27 18 41 40 14 22 28 40 31 40 4 0
10 -22 14 -50 6 -43 10 -50 30 -50 32 0 101 26 136 50 l29 21 -21 41 c-11 22
-18 42 -16 44 2 3 16 0 31 -6 15 -5 34 -10 42 -10 24 0 45 65 42 128 l-3 57
-44 3 -44 3 34 35 33 34 -57 55 c-31 30 -64 55 -72 55 -8 0 -28 -20 -44 -46
-16 -25 -31 -41 -34 -37 -3 4 -8 29 -12 56 -7 46 -8 47 -44 47 -20 0 -60 -11
-88 -25z"/>
<path d="M215 789 c-68 -21 -98 -23 -126 -9 -28 16 -25 -11 6 -49 20 -23 37
-31 73 -36 65 -9 107 -23 135 -45 l24 -19 7 49 c4 27 13 65 21 84 8 19 15 38
15 41 0 12 -99 2 -155 -16z"/>
<path d="M957 617 c-4 -30 -14 -70 -22 -90 -8 -20 -15 -39 -15 -42 0 -11 69
-4 138 15 80 22 124 25 152 10 18 -9 18 -8 8 20 -14 42 -45 60 -130 76 -51 10
-79 21 -98 39 l-27 26 -6 -54z"/>
<path d="M301 535 c-17 -20 -40 -55 -52 -78 -34 -66 -59 -98 -88 -108 l-26
-11 28 -14 c38 -21 74 -11 137 36 29 22 69 41 91 45 l40 7 -26 34 c-15 19 -35
55 -46 79 -11 25 -22 45 -23 45 -2 0 -18 -16 -35 -35z"/>
<path d="M842 404 c-24 -18 -59 -39 -78 -46 -58 -21 -43 -38 131 -145 17 -10
37 -33 46 -51 l17 -33 11 32 c17 49 14 62 -31 130 -27 39 -45 79 -48 105 l-5
42 -43 -34z"/>
<path d="M480 333 c0 -21 9 -67 20 -103 22 -73 25 -112 10 -141 -13 -24 -1
-25 40 -4 30 15 44 47 55 125 4 25 17 61 30 81 l24 37 -47 7 c-26 4 -62 13
-81 21 -48 20 -51 18 -51 -23z"/>
</g>
</svg>
